<?xml version="1.0" encoding="UTF-8" standalone="no"?>
<!-- Created with Inkscape (http://www.inkscape.org/) -->

<svg
   version="1.1"
   id="svg1"
   width="296"
   height="71"
   viewBox="0 0 296 71"
   xmlns="http://www.w3.org/2000/svg"
   xmlns:svg="http://www.w3.org/2000/svg">
  <defs
     id="defs1" />
  <g
     id="g1"
     transform="translate(0.96890344,103.67267)">
    <g
       id="g1497"
       transform="matrix(0.9964992,0,0,0.99066471,0.83410341,-102.82021)">
      <path
         style="fill:#ec9530"
         d="m 48.814882,67.0689 c -3.85,-1.981891 -7.532665,-4.274222 -8.183701,-5.09407 l -1.1837,-1.490631 0.425166,-5.057673 c 0.233842,-2.78172 0.628098,-5.260604 0.876125,-5.508632 0.248028,-0.248027 1.814994,0.52032 3.482148,1.707438 l 3.031189,2.158397 2.026386,-1.084489 2.026387,-1.084489 v -2.450628 -2.450628 l -4,-2.647075 c -2.2,-1.455891 -4,-3.003283 -4,-3.43865 0,-0.435366 2.942734,-2.286427 6.539408,-4.113469 l 6.539409,-3.321893 8.48106,4.496355 8.48106,4.496355 -0.270469,9.971577 -0.270468,9.971577 -7.5,4.268476 c -4.125,2.347662 -7.95,4.270077 -8.5,4.272033 -0.55,0.002 -4.15,-1.617989 -8,-3.599881 z"
         id="path1500" />
      <path
         style="fill:#29a9b6"
         d="m 117.51843,46.995484 -0.20355,-9.189635 -3.75,-0.392262 -3.75,-0.392263 3.78139,-0.168103 3.78138,-0.168103 0.51175,1.33359 c 0.28146,0.733474 0.35893,5.120974 0.17216,9.75 l -0.33959,8.41641 z m 7.20963,-8.810366 c 0.001,-9.9 0.1507,-13.814738 0.33256,-8.699418 0.18186,5.115319 0.181,13.215319 -0.002,18 -0.18291,4.78468 -0.3317,0.599418 -0.33065,-9.300582 z M 43.757407,51.386081 c -1.681612,-1.210529 -4.156612,-3.242648 -5.5,-4.515819 l -2.442525,-2.314856 -0.441076,1.814856 -0.441075,1.814856 -1.075221,-6 -1.07522,-6 -6.26788,-3.32312 -6.26788,-3.32312 0.284176,-10.148457 0.284176,-10.1484565 7.5,-4.2684759 c 4.125,-2.3476618 8.175,-4.26847594 9,-4.26847594 0.825,0 4.875,1.92194484 9,4.27098854 l 7.5,4.2709885 v 9.9341773 9.934178 l -6.243021,3.534887 -6.243021,3.534886 0.01099,2 0.01099,2 4.982033,3.257686 4.982033,3.257686 v 2.45713 2.457131 l -1.934259,1.035183 c -1.063842,0.569352 -2.076342,1.013118 -2.25,0.986147 -0.173658,-0.02697 -1.691605,-1.03947 -3.373216,-2.25 z m 57.969573,-27.450963 0.70594,-1.25 -1.30902,-0.118421 c -0.71996,-0.06513 -1.679967,-0.05398 -2.133348,0.02478 l -0.82433,0.143197 0.699559,-1.13191 0.69956,-1.131911 -2.37523,0.656367 c -1.306376,0.361001 0.314283,-0.828289 3.601469,-2.642866 l 5.97669,-3.299233 2.27331,-3.397883 c 1.25031,-1.8688357 2.27079,-2.9938357 2.26772,-2.5 -0.003,0.4938358 -0.4475,2.488623 -0.98763,4.432859 l -0.98205,3.534977 -4.15929,3.965023 c -2.28761,2.180764 -3.84162,3.402524 -3.45335,2.715024 z"
         id="path1499" />
      <path
         style="fill:#ffffff;fill-opacity:1;stroke-width:1.00043;stroke-dasharray:none"
         d="m 109.5515,28.68865 c -1.24486,-1.015182 -2.81986,-2.049644 -3.5,-2.298805 l -1.23662,-0.453021 2.24084,-2.156271 2.24084,-2.156272 2.94575,1.523307 c 1.62016,0.837819 3.18541,1.911095 3.47834,2.385059 0.29292,0.473963 -0.46604,1.793259 -1.68659,2.931769 l -2.21918,2.070018 z"
         id="path15" />
      <path
         style="fill:#ffffff;fill-opacity:1"
         d="m 253.31488,42.685118 v -13 h 2.59362 2.59362 l 0.51886,1.984107 0.51885,1.984107 2.52239,-1.984107 2.52238,-1.984107 h 3.23028 3.23028 l 2.7684,2.17762 2.7684,2.177621 1.22417,-1.674164 c 0.6733,-0.920789 2.62165,-1.953657 4.32968,-2.295262 1.70802,-0.341604 4.23886,-0.336641 5.62409,0.01103 l 2.5186,0.632129 1.51819,2.935853 1.51819,2.935853 v 9.54966 9.54966 h -3.5 -3.5 v -9.3 -9.3 l -1.2,-1.2 c -0.66,-0.66 -2.01,-1.2 -3,-1.2 -0.99,0 -2.7,0.9 -3.8,2 l -2,2 v 8.5 8.5 h -3 -3 v -8.845012 -8.845013 l -1.82874,-1.654987 c -1.00581,-0.910243 -2.58081,-1.654988 -3.5,-1.654988 -0.91919,0 -2.57126,0.9 -3.67126,2 l -2,2 v 8.5 8.5 h -3 -3 z"
         id="path14" />
      <path
         id="path13"
         style="fill:#ffffff;fill-opacity:1"
         d="m 228.16191,30.185989 -3.4241,3.734078 -3.42213,3.736049 0.0353,4.765187 c 0.0195,2.620577 0.61202,5.803214 1.31711,7.073849 0.7051,1.270634 2.60105,3.17949 4.21397,4.242732 l 2.93214,1.934071 4.86861,0.0059 4.86664,0.0079 3.88274,-3.883914 3.88273,-3.881942 v -5.131892 -5.131892 l -3.4241,-3.736049 -3.42213,-3.734078 h -6.15436 z m 3.78278,4.499031 h 2.64598 2.64598 l 2.03839,2.188398 2.04034,2.188399 v 3.810967 3.812938 l -2.00115,1.999131 -1.99918,2.001103 h -3.00074 -2.99878 l -2.00115,-2.001103 -1.99918,-1.999131 v -3.826739 -3.824768 l 2.31474,-2.174597 z" />
      <path
         style="fill:#ffffff;fill-opacity:1"
         d="m 197.31539,54.561665 c -1.37471,-0.548175 -3.55601,-1.982151 -4.84731,-3.186614 -1.29131,-1.204463 -3.20404,-3.859506 -4.25052,-5.900095 l -1.90268,-3.710162 v -3.571956 c 0,-1.964576 0.61958,-5.020004 1.37684,-6.789838 0.75726,-1.769835 2.66976,-4.426753 4.25,-5.904263 1.58024,-1.47751 4.13996,-3.16501 5.68826,-3.75 1.54831,-0.58499 4.3517,-1.063619 6.22976,-1.063619 1.87807,0 5.12015,0.682398 7.20463,1.51644 2.08447,0.834042 4.31819,2.362277 4.96381,3.396078 l 1.17385,1.879638 -1.95405,1.768392 -1.95405,1.768393 -2.36893,-2.225486 -2.36892,-2.225485 -3.94919,-0.0545 c -2.17206,-0.02998 -4.87391,0.52299 -6.00412,1.228815 -1.1302,0.705826 -2.78234,2.51474 -3.6714,4.019811 l -1.61649,2.736491 v 3.96085 3.960849 l 2.0883,2.654838 c 1.14856,1.460161 3.37621,3.320847 4.95034,4.134859 1.57412,0.814011 3.49659,1.48002 4.27215,1.48002 0.77557,0 3.06125,-1.120486 5.07929,-2.48997 l 3.66918,-2.48997 1.97037,1.230517 c 1.0837,0.676784 1.97037,1.493829 1.97037,1.815656 0,0.321827 -1.0125,1.507347 -2.25,2.63449 -1.2375,1.127143 -3.23291,2.555584 -4.43426,3.174314 -1.20134,0.61873 -4.12634,1.096439 -6.5,1.061577 -2.37365,-0.03486 -5.44051,-0.511893 -6.81523,-1.060067 z"
         id="path11" />
      <path
         style="fill:#ffffff;fill-opacity:1"
         d="m 159.56488,53.712048 -4.25,-1.929146 0.0153,-1.298892 c 0.008,-0.71439 0.41759,-1.934374 0.90926,-2.711075 l 0.89393,-1.412183 5.02613,2.162183 c 2.76438,1.189201 6.14807,2.162183 7.51932,2.162183 1.37126,0 3.20034,-0.707143 4.06462,-1.571428 0.86429,-0.864286 1.57143,-2.203912 1.57143,-2.976947 0,-0.773035 -1.0125,-2.044669 -2.25,-2.825852 -1.2375,-0.781183 -4.81651,-2.148027 -7.95337,-3.037431 l -5.70336,-1.617098 -1.54664,-2.208128 -1.54663,-2.208128 v -3.554988 -3.554987 l 1.5031,-2.145978 c 0.82671,-1.180288 3.13866,-2.685759 5.13767,-3.345492 l 3.63457,-1.199515 4.65902,0.551792 c 2.56247,0.303487 5.84028,1.090005 7.28402,1.747819 l 2.62499,1.196025 -1.11259,2.441876 -1.1126,2.441875 -2.05909,-0.695353 c -1.1325,-0.382445 -4.27929,-0.911472 -6.99287,-1.175616 l -4.93378,-0.480262 -1.27747,1.747049 -1.27747,1.747048 0.97614,1.823951 0.97615,1.82395 6.93382,2.064981 6.93382,2.064981 2.05129,2.607787 c 1.1282,1.434282 2.05128,3.650926 2.05128,4.925875 0,1.274948 -0.51235,3.442576 -1.13856,4.81695 l -1.13855,2.498861 -3.26257,1.548192 -3.26258,1.548191 -4.84887,-0.02196 -4.84887,-0.02196 z"
         id="path10" />
      <path
         style="fill:#ffffff;fill-opacity:1"
         d="m 125.31488,38.185118 v -17.5 h 12 12 v 3 3 h -9.0575 -9.05749 l 0.30749,4.25 0.3075,4.25 7.75,0.292065 7.75,0.292064 v 2.457936 2.457935 h -8.05479 -8.05479 l 0.30479,4.75 0.30479,4.75 9,0.05422 9,0.05423 0.31642,2.695775 0.31643,2.695776 H 137.8813 125.31488 Z"
         id="path9" />
      <path
         style="fill:#ffffff;fill-opacity:1"
         d="M 94.494509,54.003362 C 92.668303,53.103444 89.986191,50.80967 88.534258,48.906089 l -2.639878,-3.461058 -0.396288,-6.223592 -0.396289,-6.223593 1.605488,-3.10467 c 0.883018,-1.707569 3.068461,-4.186386 4.856539,-5.508482 1.788079,-1.322096 4.056341,-2.688062 5.040584,-3.035479 l 1.789533,-0.631667 1.882963,1.175932 1.88297,1.175932 -4.391403,3.865468 -4.391404,3.865469 -0.916178,3.318123 c -0.503898,1.824967 -0.67891,4.61154 -0.388915,6.192384 0.289994,1.580844 1.362345,4.067415 2.383002,5.525712 1.020657,1.458298 3.094176,3.08054 4.60782,3.604984 1.513648,0.524443 3.877078,0.786668 5.252078,0.582721 1.375,-0.203946 3.625,-1.199753 5,-2.212904 l 2.5,-1.842092 v -1.892079 -1.89208 l -4.25,-0.307498 -4.25,-0.307497 v -1.835514 c 0,-1.009532 0.5625,-2.026428 1.25,-2.259769 0.6875,-0.233341 2.15,-0.358459 3.25,-0.278039 1.1,0.08042 3.6875,0.223189 5.75,0.317267 l 3.75,0.17105 v 9 9 h -3 -3 v -1.5 c 0,-0.825 -0.17356,-1.5 -0.38569,-1.5 -0.21213,0 -1.67463,0.672228 -3.25,1.49384 -1.57537,0.821611 -4.43931,1.486365 -6.36431,1.477229 -1.924998,-0.0091 -4.994166,-0.752906 -6.820371,-1.652825 z"
         id="path8" />
      <path
         style="fill:#1b2c5e"
         d="M 11.314882,67.527396 C 8.2898817,65.839018 4.7863383,63.812919 3.5292296,63.024955 l -2.2856522,-1.432663 0.2856522,-9.667274 0.2856521,-9.667275 7.8971598,-4.423386 7.8971595,-4.423387 7.880948,3.887074 7.880949,3.887074 0.58527,2.269805 c 0.321899,1.248392 0.646751,5.898069 0.721892,10.332614 l 0.136622,8.06281 -8,4.391184 c -4.4,2.41515 -8.45,4.383187 -9,4.373413 -0.55,-0.0098 -3.475,-1.39917 -6.5,-3.087548 z"
         id="path1498" />
    </g>
  </g>
</svg>
