<?xml version="1.0" encoding="UTF-8" standalone="no"?>
<!-- Created with Inkscape (http://www.inkscape.org/) -->

<svg
   version="1.1"
   id="svg1"
   width="197.33333"
   height="201.33333"
   viewBox="0 0 197.33333 201.33333"
   sodipodi:docname="icono.svg"
   inkscape:version="1.4.3 (0d15f75, 2025-12-25)"
   xmlns:inkscape="http://www.inkscape.org/namespaces/inkscape"
   xmlns:sodipodi="http://sodipodi.sourceforge.net/DTD/sodipodi-0.dtd"
   xmlns="http://www.w3.org/2000/svg"
   xmlns:svg="http://www.w3.org/2000/svg">
  <defs
     id="defs1" />
  <sodipodi:namedview
     id="namedview1"
     pagecolor="#ffffff"
     bordercolor="#000000"
     borderopacity="0.25"
     inkscape:showpageshadow="2"
     inkscape:pageopacity="0.0"
     inkscape:pagecheckerboard="0"
     inkscape:deskcolor="#d1d1d1"
     inkscape:zoom="1.34851"
     inkscape:cx="74.897481"
     inkscape:cy="84.166971"
     inkscape:window-width="1366"
     inkscape:window-height="745"
     inkscape:window-x="-8"
     inkscape:window-y="-8"
     inkscape:window-maximized="1"
     inkscape:current-layer="g1" />
  <g
     inkscape:groupmode="layer"
     inkscape:label="Image"
     id="g1">
    <g
       id="g45"
       transform="translate(1.4831131,0.96623753)">
      <path
         style="fill:#f39427"
         d="M 143.33333,195.2218 C 140.4,193.37291 134.4,190.02922 130,187.79139 c -4.4,-2.23783 -11.731,-6.55637 -16.29111,-9.59676 l -8.2911,-5.52797 -0.0422,-18.33333 C 105.35233,144.25 105.80088,136 106.37232,136 c 0.57144,0 1.9039,1.2 2.96101,2.66666 1.05711,1.46667 2.74884,2.66667 3.7594,2.66667 1.01056,0 3.51883,1.8 5.57393,4 4.76344,5.09927 10.73961,5.38161 15.39394,0.72727 5.64947,-5.64947 3.84076,-18.0606 -2.63203,-18.0606 -1.15238,0 -2.09524,-0.6 -2.09524,-1.33334 0,-0.73333 -0.95927,-1.33333 -2.13172,-1.33333 -1.17245,0 -3.81317,-1.8 -5.86828,-4 -2.05511,-2.2 -4.69583,-4 -5.86828,-4 -4.54204,0 -1.67106,-3.55558 6.90793,-8.55515 21.19402,-12.351227 28.47012,-15.742895 32.18089,-15.000742 2.0068,0.40136 8.41559,3.938629 14.24176,7.860592 5.82616,3.92197 14.33058,9.4013 18.8987,12.17628 l 8.30566,5.04543 -0.0177,28.23679 -0.0177,28.2368 -12.31566,6 c -6.77361,3.3 -16.68293,8.55 -22.02072,11.66667 -5.33778,3.11666 -10.43778,5.64794 -11.33333,5.62505 -0.89555,-0.0229 -4.02827,-1.55435 -6.9616,-3.40325 z"
         id="path47" />
      <path
         style="fill:#21adba"
         d="m 118.66666,145.33333 c -1.83333,-2.15613 -4.25087,-3.93819 -5.37232,-3.96012 -1.12144,-0.0219 -2.9039,-1.23988 -3.96101,-2.70655 C 108.27622,137.2 106.64376,136 105.70565,136 c -0.93811,0 -1.70975,-0.45 -1.71476,-1 -0.005,-0.55 -2.25501,-2.46945 -5.000003,-4.26544 -6.417271,-4.19868 -10.990889,-9.2143 -10.990889,-12.05306 0,-1.23038 -0.432182,-2.66924 -0.960405,-3.19746 -0.528223,-0.52823 -0.777262,-3.08615 -0.55342,-5.68428 0.507351,-5.88881 -1.576524,-7.96523 -14.551246,-14.499198 C 66.589253,92.608524 59.917028,88.884877 57.10776,87.025791 L 51.999999,83.645635 V 56.696134 c 0,-24.028571 0.252899,-27.162524 2.333333,-28.914921 3.625232,-3.053616 21.151765,-13.137047 33.590325,-19.3253127 l 11.256993,-5.600428 5.40967,3.1506701 C 107.56564,7.7390109 113.6,11.258366 118,13.826932 c 4.4,2.568566 12.04598,6.958283 16.99108,9.754927 l 8.99108,5.084807 0.009,27.502402 0.009,27.502402 -17.33334,9.763538 c -16.35168,9.210592 -17.33082,9.993892 -17.28897,13.830932 0.0462,4.23498 3.88975,10.06739 6.63442,10.06739 0.87156,0 3.26611,1.8 5.32122,4 2.05511,2.2 4.69583,4 5.86828,4 1.17245,0 2.13172,0.6 2.13172,1.33333 0,0.73334 0.94286,1.33334 2.09524,1.33334 3.61596,0 5.90476,3.60436 5.90476,9.2987 0,11.198 -11.69623,16.23237 -18.66667,8.03463 z"
         id="path46" />
      <path
         style="fill:#1c2c6d"
         d="m 31.999999,191.27864 c -5.5,-3.25616 -12.4,-7.11892 -15.333333,-8.5839 -2.933333,-1.46498 -7.7333329,-4.34959 -10.6666662,-6.41024 L 0.66666665,172.53787 V 145.26893 118 L 12,111.80627 c 6.233333,-3.40654 12.833333,-7.06451 14.666666,-8.12882 19.336451,-11.225363 19.341545,-11.226678 26.721487,-6.897412 2.536515,1.487986 5.511845,3.13092 6.611845,3.650962 1.1,0.52005 4.7,2.69644 8,4.83643 3.3,2.13999 9.15,5.39708 13,7.23797 4.967422,2.37518 7,4.11515 7,5.99226 0,1.45486 0.913648,3.55884 2.030329,4.67552 2.95989,2.95989 2.325295,49.9765 -0.696996,51.63977 -1.1,0.60536 -8.494948,4.7201 -16.433218,9.14385 -7.93827,4.42376 -14.83827,8.05654 -15.333333,8.07284 -0.495063,0.0163 -2.400115,1.20297 -4.233448,2.63702 -5.088058,3.97994 -10.281136,3.15521 -21.333333,-3.38802 z"
         id="path45" />
    </g>
  </g>
</svg>
